<svg width="240" height="60" viewBox="0 0 240 60" fill="none" xmlns="http://www.w3.org/2000/svg">
<g clip-path="url(#clip0_4092_5741)">
<path fill-rule="evenodd" clip-rule="evenodd" d="M93.8266 36.9812C97.7619 36.9812 99.5889 35.4819 99.5889 32.2754V25.078C99.5889 21.8715 97.7619 20.3722 93.8266 20.3722H85.9327C85.3469 20.3722 85.0894 20.6259 85.0894 21.2028V36.1509C85.0894 36.7278 85.3469 36.9812 85.9327 36.9812H93.8266ZM90.4066 24.7783H93.1942C93.9436 24.7783 94.2951 25.1242 94.2951 25.8856V31.4911C94.2951 32.2754 93.9436 32.6215 93.1942 32.6215H90.4066V24.7783ZM108.126 25.2164C108.244 24.9399 108.384 24.8242 108.572 24.8242H109.157C109.344 24.8242 109.485 24.9399 109.602 25.2164L110.703 28.723H107.025L108.126 25.2164ZM106.791 36.1509V32.9213H110.937V36.1509C110.937 36.7278 111.219 36.9812 111.851 36.9812H115.388C115.974 36.9812 116.231 36.7278 116.231 36.1509V30.0608C116.153 28.7868 115.843 27.5368 115.318 26.3701L113.28 21.1334C113.207 20.891 113.049 20.6817 112.835 20.5424C112.621 20.4031 112.363 20.3429 112.108 20.3722H105.807C105.549 20.3394 105.287 20.3979 105.068 20.5373C104.85 20.6766 104.688 20.8879 104.613 21.1334L102.575 26.3701C102.049 27.5368 101.74 28.7868 101.661 30.0608V36.1509C101.661 36.7278 101.919 36.9812 102.505 36.9812H105.948C106.534 36.9812 106.791 36.7278 106.791 36.1509ZM125.589 36.9812C126.174 36.9812 126.432 36.7278 126.432 36.1509V24.8242H129.875C130.461 24.8242 130.719 24.5705 130.719 23.9938V21.2028C130.719 20.6259 130.461 20.3722 129.875 20.3722H117.507C116.922 20.3722 116.664 20.6259 116.664 21.2028V23.9938C116.664 24.5705 116.922 24.8242 117.507 24.8242H120.951V36.1509C120.951 36.7278 121.208 36.9812 121.794 36.9812H125.589ZM137.616 25.2164C137.734 24.9399 137.874 24.8242 138.061 24.8242H138.647C138.835 24.8242 138.975 24.9399 139.092 25.2164L140.193 28.723H136.515L137.616 25.2164ZM136.281 36.1509V32.9213H140.427V36.1509C140.427 36.7278 140.708 36.9812 141.341 36.9812H144.878C145.464 36.9812 145.721 36.7278 145.721 36.1509V30.0608C145.643 28.7868 145.333 27.5368 144.808 26.3701L142.77 21.1334C142.697 20.891 142.539 20.6817 142.325 20.5425C142.111 20.4032 141.854 20.3429 141.598 20.3722H135.297C135.039 20.3394 134.777 20.3979 134.558 20.5372C134.34 20.6766 134.178 20.8879 134.103 21.1334L132.065 26.3701C131.539 27.5369 131.23 28.7868 131.151 30.0608V36.1509C131.151 36.7278 131.409 36.9812 131.994 36.9812H135.438C136.023 36.9812 136.281 36.7278 136.281 36.1509ZM157.889 36.9812C161.005 36.9812 162.434 35.7818 162.434 33.1982V31.0759C162.434 28.8152 161.497 27.6848 159.482 27.5003C160.419 27.1081 160.865 26.3009 160.865 25.0088V23.9016C160.865 21.4793 159.436 20.3722 156.367 20.3722H148.895C148.309 20.3722 148.051 20.6259 148.051 21.2028V36.1509C148.051 36.7278 148.309 36.9812 148.895 36.9812H157.889ZM153.322 24.2938H155.313C155.922 24.2938 156.203 24.5936 156.203 25.2164V25.8625C156.203 26.4853 155.922 26.7853 155.313 26.7853H153.322V24.2938ZM153.322 30.3378H156.367C156.976 30.3378 157.257 30.6145 157.257 31.2373V32.1368C157.257 32.7597 156.976 33.0596 156.367 33.0596H153.322V30.3378ZM170.597 25.2164C170.714 24.9399 170.854 24.8242 171.042 24.8242H171.627C171.815 24.8242 171.955 24.9399 172.072 25.2164L173.173 28.723H169.496L170.597 25.2164ZM169.262 36.1509V32.9213H173.408V36.1509C173.408 36.7278 173.689 36.9812 174.321 36.9812H177.858C178.444 36.9812 178.701 36.7278 178.701 36.1509V30.0608C178.623 28.7868 178.314 27.5368 177.788 26.3701L175.75 21.1334C175.677 20.891 175.52 20.6817 175.305 20.5424C175.091 20.4031 174.834 20.3429 174.579 20.3722H168.277C168.019 20.3394 167.757 20.3979 167.539 20.5373C167.32 20.6767 167.159 20.8879 167.083 21.1334L165.045 26.3701C164.519 27.5368 164.21 28.7868 164.131 30.0608V36.1509C164.131 36.7278 164.389 36.9812 164.975 36.9812H168.418C169.004 36.9812 169.262 36.7278 169.262 36.1509ZM188.855 36.9812C191.877 36.9812 193.704 35.5511 193.704 32.9213V30.4991C193.704 27.9157 192.252 26.9928 190.05 26.67L186.56 26.2084C186.469 26.2014 186.38 26.1767 186.299 26.1356C186.218 26.0946 186.146 26.0382 186.087 25.9695C186.028 25.9008 185.984 25.8213 185.956 25.7356C185.929 25.6499 185.919 25.5597 185.927 25.4703C185.916 25.3826 185.924 25.2935 185.95 25.2091C185.977 25.1247 186.022 25.047 186.082 24.9813C186.142 24.9156 186.216 24.8635 186.298 24.8284C186.381 24.7934 186.47 24.7763 186.56 24.7783H192.018C192.603 24.7783 192.861 24.5244 192.861 23.9477V21.2028C192.861 20.6259 192.603 20.3722 192.018 20.3722H185.459C182.414 20.3722 180.61 21.8025 180.61 24.4324V26.8543C180.61 29.438 182.039 30.3608 184.241 30.6837L187.755 31.1681C188.153 31.2142 188.364 31.4218 188.364 31.9525C188.373 32.0369 188.365 32.1223 188.339 32.2032C188.313 32.2841 188.269 32.3586 188.212 32.4218C188.154 32.485 188.084 32.5355 188.005 32.5699C187.926 32.6043 187.841 32.6219 187.755 32.6215H181.453C180.868 32.6215 180.61 32.8754 180.61 33.4518V36.1509C180.61 36.7278 180.868 36.9812 181.453 36.9812H188.855ZM207.418 36.9812C208.004 36.9812 208.262 36.7278 208.262 36.1509V33.4518C208.262 32.8754 208.004 32.6215 207.418 32.6215H200.954V30.6377H205.521C206.107 30.6377 206.365 30.3839 206.365 29.807V27.3388C206.365 26.7621 206.107 26.5083 205.521 26.5083H200.954V24.732H207.418C208.004 24.732 208.262 24.4783 208.262 23.9016V21.2028C208.262 20.6259 208.004 20.3722 207.418 20.3722H196.55C195.964 20.3722 195.706 20.6259 195.706 21.2028V36.1509C195.706 36.7278 195.964 36.9812 196.55 36.9812H207.418ZM215.769 24.5244H217.525C218.345 24.5244 218.556 24.9858 218.556 25.6086V26.3931C218.556 27.0159 218.345 27.4771 217.525 27.4771H215.769V24.5244ZM214.925 36.9812C215.511 36.9812 215.769 36.7278 215.769 36.1509V31.6295H219.048C219.704 31.6295 219.938 31.9293 219.938 32.6215V36.1509C219.938 36.7278 220.196 36.9812 220.781 36.9812H224.412C224.998 36.9812 225.255 36.7278 225.255 36.1509V31.2606C225.255 29.3227 224.131 28.1001 222.421 27.9157C223.405 27.5003 223.733 26.5775 223.733 25.2858V24.2245C223.733 21.9409 222.632 20.3722 219.118 20.3722H211.318C210.732 20.3722 210.475 20.6259 210.475 21.2028V36.1509C210.475 36.7278 210.732 36.9812 211.318 36.9812H214.925ZM235.151 36.9812C238.173 36.9812 240 35.5511 240 32.9213V30.4991C240 27.9157 238.548 26.9928 236.346 26.67L232.856 26.2084C232.765 26.2014 232.676 26.1767 232.595 26.1356C232.514 26.0946 232.442 26.0382 232.383 25.9695C232.324 25.9008 232.28 25.8213 232.252 25.7356C232.225 25.6499 232.215 25.5597 232.224 25.4703C232.212 25.3826 232.22 25.2935 232.247 25.2091C232.273 25.1247 232.318 25.047 232.378 24.9813C232.439 24.9156 232.512 24.8635 232.595 24.8284C232.677 24.7934 232.766 24.7763 232.856 24.7783H238.314C238.9 24.7783 239.157 24.5244 239.157 23.9477V21.2028C239.157 20.6259 238.9 20.3722 238.314 20.3722H231.755C228.71 20.3722 226.906 21.8025 226.906 24.4324V26.8543C226.906 29.438 228.335 30.3608 230.537 30.6837L234.051 31.1681C234.449 31.2142 234.66 31.4218 234.66 31.9525C234.669 32.0369 234.661 32.1223 234.635 32.2032C234.609 32.2841 234.565 32.3586 234.508 32.4218C234.45 32.485 234.38 32.5355 234.301 32.5699C234.222 32.6043 234.137 32.6219 234.051 32.6215H227.749C227.164 32.6215 226.906 32.8754 226.906 33.4518V36.1509C226.906 36.7278 227.164 36.9812 227.749 36.9812H235.151Z" fill="white"/>
<path fill-rule="evenodd" clip-rule="evenodd" d="M6.11409 7.49026L9.99238 13.684C10.1487 13.6311 10.3129 13.6043 10.4781 13.6046C10.6109 13.6046 10.743 13.6219 10.8712 13.656L12.4829 10.6789C12.2016 10.4387 12.0212 10.1038 11.9769 9.73969C11.9327 9.37557 12.0278 9.00827 12.2437 8.70948L9.42663 5.87589L9.03632 5.48346L9.5713 5.33111L16.7891 3.27835L17.0997 3.19005L17.1987 3.49279L18.7588 8.25482C18.8225 8.24683 18.8866 8.24281 18.9508 8.24279C19.1529 8.24262 19.3529 8.28283 19.5387 8.361C19.7245 8.43916 19.8923 8.55364 20.0319 8.69752L22.5623 6.75232L23.1769 2.20181L23.2135 1.9314L23.4899 1.91659L29.2475 1.61351L29.7126 1.25577L29.9465 1.07617L30.1547 1.28393L30.4225 1.55142L34.6742 1.32767L35.3893 1.29005L34.957 1.85297L33.1199 4.24511L35.3228 6.44486L40.4344 4.01114L38.9669 2.12358L39.4963 1.72545L41.0468 3.71967L44.5736 2.04001L44.7657 1.94871L44.9311 2.08395L48.4277 4.95426L51.7372 2.88613L51.8655 2.8061L52.0125 2.85004L60.5893 5.42908L61.1971 5.61216L60.6988 5.99944L55.7441 9.85132C55.8456 10.1351 55.8566 10.4426 55.7755 10.7327C55.6944 11.0227 55.5251 11.2814 55.2904 11.474L56.81 15.0148L56.8713 15.0136C57.237 15.0133 57.59 15.1452 57.8634 15.3844L60.9799 13.1246C60.8901 12.901 60.8571 12.6592 60.8839 12.4202C60.9107 12.1812 60.9964 11.9522 61.1336 11.7533C61.2709 11.5544 61.4554 11.3916 61.6711 11.279C61.8869 11.1664 62.1273 11.1075 62.3715 11.1074C62.4063 11.1074 62.4409 11.1088 62.4754 11.1111L63.712 7.12821L64.3487 7.31858L63.1122 11.3005C63.2954 11.4033 63.4545 11.5429 63.5791 11.7104C63.7037 11.8779 63.7909 12.0694 63.8351 12.2724C63.8793 12.4754 63.8794 12.6853 63.8355 12.8884C63.7916 13.0914 63.7046 13.283 63.5802 13.4507C63.4559 13.6183 63.297 13.7582 63.1139 13.8611C62.9308 13.9641 62.7278 14.0278 62.518 14.0481C62.3082 14.0684 62.0964 14.0448 61.8965 13.9788C61.6966 13.9129 61.5131 13.8061 61.358 13.6655L58.2518 15.9175C58.3639 16.1808 58.3959 16.4704 58.344 16.7513C58.292 17.0322 58.1584 17.2921 57.9593 17.4996C57.7602 17.7071 57.5042 17.8532 57.2224 17.9202C56.9406 17.9871 56.6451 17.972 56.3718 17.8767C56.0986 17.7814 55.8593 17.6101 55.6831 17.3834C55.5068 17.1568 55.4012 16.8846 55.379 16.5999C55.3569 16.3153 55.4191 16.0304 55.5582 15.78C55.6973 15.5295 55.9073 15.3242 56.1626 15.189L54.6962 11.7716C54.4973 11.8205 54.2904 11.8287 54.0882 11.7957C53.886 11.7627 53.6928 11.6892 53.5206 11.5798L46.9919 16.6552C47.0938 16.89 47.1321 17.1469 47.1029 17.4007C47.0737 17.6544 46.9781 17.8964 46.8254 18.1028C46.6726 18.3092 46.4681 18.473 46.2318 18.5781C45.9954 18.6832 45.7354 18.726 45.4772 18.7024C45.219 18.6788 44.9714 18.5895 44.7588 18.4433C44.5462 18.2971 44.3758 18.099 44.2643 17.8684C44.1528 17.6378 44.1041 17.3826 44.1229 17.1279C44.1416 16.8732 44.2273 16.6277 44.3715 16.4154L39.3529 11.4036L34.6788 14.3246C34.7688 14.5044 34.8207 14.7004 34.8312 14.9006C34.8418 15.1008 34.8107 15.301 34.74 15.489C34.6692 15.677 34.5603 15.8488 34.4199 15.9939C34.2794 16.139 34.1104 16.2544 33.9231 16.333C33.7358 16.4116 33.5342 16.4517 33.3306 16.451C33.1271 16.4502 32.9258 16.4086 32.7391 16.3286C32.5524 16.2486 32.3843 16.132 32.2449 15.9859C32.1056 15.8397 31.998 15.6671 31.9287 15.4786L22.9829 17.4889C22.985 17.5197 22.9862 17.5502 22.9862 17.5813C22.9862 17.9722 22.8285 18.3471 22.5478 18.6235C22.2671 18.8999 21.8865 19.0552 21.4895 19.0552C21.0926 19.0552 20.7119 18.8999 20.4312 18.6235C20.1506 18.3471 19.9929 17.9722 19.9929 17.5813L19.9943 17.5197L11.8135 15.7452C11.7154 15.9358 11.5764 16.1031 11.4062 16.2355C11.236 16.3679 11.0385 16.4623 10.8276 16.5122C10.6166 16.562 10.3972 16.5661 10.1845 16.5242C9.97174 16.4822 9.77083 16.3953 9.59562 16.2693C9.42042 16.1433 9.27512 15.9813 9.16978 15.7945C9.06444 15.6078 9.00159 15.4007 8.98557 15.1876C8.96954 14.9746 9.00074 14.7606 9.077 14.5606C9.15325 14.3606 9.27274 14.1793 9.42719 14.0293L5.54834 7.83443L6.11409 7.49026ZM11.458 13.9643C11.6204 14.1025 11.7506 14.2736 11.8398 14.4658C11.9289 14.6581 11.975 14.8671 11.9747 15.0784L11.9746 15.1067L20.1702 16.8844C20.1936 16.8416 20.2192 16.8 20.2469 16.7597L14.3052 10.7832C14.057 10.95 13.7635 11.039 13.463 11.0386C13.3302 11.0386 13.1979 11.0213 13.0697 10.9872L11.458 13.9643ZM17.4927 10.0502L14.908 9.94922C14.8741 10.0728 14.8239 10.1915 14.7587 10.3022L20.7318 16.3103C20.9051 16.2096 21.0975 16.1447 21.2972 16.1195L22.437 7.68008L20.3757 9.26454C20.4376 9.45373 20.4599 9.65327 20.4415 9.85118C20.423 10.0491 20.3641 10.2413 20.2683 10.4162C20.1725 10.5911 20.0417 10.7452 19.8839 10.8691C19.7261 10.9929 19.5445 11.0841 19.35 11.1371C19.1555 11.1901 18.9521 11.2039 18.7521 11.1775C18.5521 11.1511 18.3595 11.0852 18.186 10.9836C18.0126 10.8821 17.8617 10.7471 17.7426 10.5867C17.6234 10.4262 17.5384 10.2438 17.4927 10.0502ZM14.9342 9.2943L17.4903 9.39401C17.5758 9.01912 17.8066 8.6919 18.1334 8.48204L16.664 3.99619L10.2914 5.80844L12.7417 8.27317C12.9491 8.16088 13.1806 8.09864 13.4172 8.09154C13.6538 8.08445 13.8888 8.13272 14.1027 8.23238C14.3167 8.33203 14.5036 8.48025 14.6482 8.66484C14.7927 8.84944 14.8907 9.06517 14.9342 9.2943ZM27.47 11.609L22.704 16.7203C22.7368 16.7646 22.767 16.8109 22.7942 16.8588L31.8478 14.8242C31.8755 14.563 31.9736 14.3138 32.1319 14.1024C32.2902 13.891 32.503 13.7251 32.7482 13.6219C32.9935 13.5187 33.2623 13.4818 33.5268 13.5153C33.7914 13.5487 34.042 13.6511 34.2529 13.8119L38.8733 10.9249L35.184 7.24015L29.5303 9.93211C29.5915 10.1982 29.5766 10.4757 29.4872 10.7339C29.3978 10.9921 29.2374 11.2208 29.0239 11.3946C28.8104 11.5684 28.5521 11.6804 28.2777 11.7183C28.0034 11.7561 27.7238 11.7183 27.47 11.609ZM22.2048 16.2865L26.9327 11.2161C26.7114 10.9608 26.5852 10.6386 26.5751 10.3031C26.5649 9.9675 26.6714 9.63857 26.8769 9.37068C27.0824 9.10279 27.3745 8.91198 27.7051 8.82982C28.0356 8.74766 28.3847 8.77906 28.6947 8.91884L32.2409 4.30108L30.1591 2.22232L29.491 2.25743L23.1859 7.10415L21.9599 16.1818C22.0445 16.2094 22.1265 16.2444 22.2048 16.2865ZM46.8312 10.3454C47.1748 10.3454 47.508 10.4618 47.7747 10.675C48.0415 10.8883 48.2256 11.1855 48.2962 11.5167C48.3668 11.8479 48.3195 12.1929 48.1623 12.4938C48.0051 12.7947 47.7476 13.0332 47.433 13.1692C47.1184 13.3052 46.7658 13.3305 46.4345 13.2408C46.1031 13.151 45.8133 12.9518 45.6135 12.6765C45.4137 12.4011 45.3162 12.0665 45.3374 11.7287C45.3585 11.391 45.497 11.0707 45.7296 10.8216L43.949 8.53134L39.928 11.0441L44.8558 15.965C45.1269 15.8078 45.4413 15.7388 45.7545 15.7675C46.0677 15.7963 46.3637 15.9214 46.6006 16.1252L53.0539 11.1082C52.9134 10.8804 52.8382 10.6194 52.8362 10.3529C52.8342 10.0864 52.9054 9.8243 53.0424 9.59447L48.3764 5.76471L44.5136 8.17854L46.2788 10.4489C46.4546 10.3803 46.6421 10.3452 46.8312 10.3454ZM41.4602 4.25144L44.1063 7.65463L47.8381 5.32284L44.6707 2.72273L41.4602 4.25144ZM43.5417 8.00764L40.848 4.54291L35.817 6.9386L39.4487 10.5653L43.5417 8.00764ZM54.3325 8.8678C54.7273 8.86731 55.1063 9.02096 55.3863 9.29507L59.7879 5.87332L51.9665 3.52136L48.9663 5.39613L53.4992 9.11728C53.7455 8.95418 54.0357 8.8673 54.3325 8.8678ZM29.2233 9.31871L29.2413 9.34061L34.6896 6.74662L32.7141 4.77355L29.2233 9.31871ZM31.0473 2.17539L32.6468 3.77286L33.9927 2.02026L31.0473 2.17539ZM23.3114 6.17661L28.3301 2.31848L23.8001 2.55718L23.3114 6.17661Z" fill="white"/>
<path fill-rule="evenodd" clip-rule="evenodd" d="M57.4294 39.0638C60.7565 40.0131 63.3152 42.7443 63.3152 46.3596V51.3207C65.4697 50.1028 66.8601 48.761 67.2759 47.3668C67.299 47.2968 67.3159 47.2249 67.3264 47.1519C67.3364 47.0565 67.3372 46.9491 67.3378 46.8043L67.3768 35.899C66.0304 36.9598 64.5567 37.8534 62.9888 38.5598L62.9788 38.5503L62.9702 38.5419L62.9688 38.5407L62.9604 38.5328L62.9585 38.5312L62.9506 38.5235L62.9486 38.5216L62.9408 38.5143L62.9386 38.5121L62.9309 38.5052L62.9283 38.5027L62.9209 38.4959L62.9184 38.4933L62.9112 38.4867L62.9079 38.4837L62.9014 38.4774V38.4772L62.8978 38.4742L62.8915 38.4683L62.8877 38.4648L62.8815 38.4591L62.8775 38.4553L62.8717 38.4498L62.8673 38.4458L62.8617 38.4409L62.8571 38.4364L62.8517 38.4317L62.8469 38.4271L62.8419 38.4224L62.8365 38.4179L62.8319 38.4135L62.8263 38.4084L62.8219 38.4043L62.8161 38.3989L62.812 38.3952L62.8059 38.3895L62.8021 38.3861L62.7955 38.3804L62.7921 38.3771L62.788 38.3733L62.7851 38.371L62.782 38.368L62.7748 38.3617L62.772 38.3589L62.7645 38.3523L62.7621 38.3499L62.7542 38.3431L62.7518 38.3408L62.7438 38.3337L62.7418 38.332L62.7334 38.3244L62.7316 38.3228L62.723 38.3152L62.7216 38.314L62.7126 38.306L62.7114 38.3049L62.7024 38.2966L62.7014 38.2959L62.6918 38.2874L62.6912 38.287L62.6814 38.2781L62.6812 38.2779L62.6732 38.2708L62.671 38.269L62.661 38.26L62.6606 38.2598L62.6508 38.2509L62.6499 38.2505L62.6403 38.2423L62.6396 38.2415L62.6302 38.2332L62.629 38.2322L62.6199 38.2243L62.6183 38.2229L62.6098 38.2154L62.5995 38.2066L62.5973 38.2048L62.5893 38.1977L62.5868 38.1955L62.5789 38.1889L62.5761 38.1863L62.5687 38.18L62.5657 38.1774L62.5585 38.1713L62.5565 38.1695L62.5549 38.1681L62.5443 38.1591L62.5379 38.1534L62.5339 38.15L62.5276 38.1447L62.5231 38.141L62.5171 38.136L62.5125 38.1319L62.5069 38.1272L62.5019 38.1228L62.4964 38.1185L62.4911 38.1138L62.4863 38.1096L62.4804 38.1049L62.4756 38.1009L62.4696 38.0958L62.4652 38.0921L62.459 38.0867L62.455 38.0834L62.448 38.0779L62.434 38.0659L62.4268 38.06L62.4236 38.0572L62.4158 38.0508L62.4132 38.0485L62.4052 38.0418L62.4028 38.0396L62.3942 38.033L62.3922 38.0312L62.3816 38.0223L62.3726 38.0152L62.3712 38.0139L62.3617 38.0061L62.3605 38.005L62.3499 37.9965L62.3401 37.9884L62.3396 37.988L62.3293 37.9794L62.329 37.9792L62.3183 37.9707L61.771 37.5258L61.9493 36.8496L61.9555 36.8254L61.9557 36.8251L61.9611 36.8044L61.9619 36.8013V36.8009L61.9681 36.7772V36.7765L61.9727 36.7591L61.9741 36.7528L61.9745 36.7522L61.9805 36.7288L61.9807 36.7278L61.9841 36.7138L61.9865 36.7045L61.9869 36.7035L61.9925 36.6805L61.9929 36.6791L61.9955 36.6686L61.9985 36.6563L61.9989 36.6547L62.0045 36.632L62.0049 36.6302L62.0065 36.6233L62.0103 36.6077L62.0108 36.606L62.0161 36.5835L62.0165 36.5813L62.0173 36.578L62.0217 36.5593L62.0225 36.5571L62.0276 36.535L62.0281 36.5324L62.0331 36.5108L62.0339 36.5082L62.0387 36.4871V36.4865L62.0394 36.4835L62.0444 36.4621L62.0449 36.4591L62.049 36.4416L62.0499 36.4379L62.0506 36.4345L62.0552 36.4134L62.0562 36.4103L62.0591 36.3963L62.0607 36.3892L62.0614 36.3856L62.0662 36.3647L62.0667 36.3612L62.0691 36.3505L62.0712 36.3405L62.0722 36.3366L62.0766 36.3163L62.0775 36.3119L62.079 36.305L62.0818 36.2918L62.0826 36.2875L62.0868 36.2672L62.0878 36.2629L62.0886 36.2593L62.092 36.2429L62.0928 36.2384L62.097 36.2187L62.098 36.2138V36.2136L62.102 36.1942L62.1028 36.1889L62.1068 36.1698L62.1074 36.168L62.108 36.1645L62.1118 36.1453L62.1126 36.1399L62.1176 36.1152L62.1206 36.0997L62.1214 36.0965L62.1224 36.0906L62.1252 36.0764L62.126 36.0719L62.1272 36.0657L62.1306 36.0476L62.1318 36.0413L62.1338 36.0305L62.1354 36.023L62.1364 36.0164L62.1398 35.9985L62.141 35.9918L62.1442 35.9739L62.1454 35.9672L62.1487 35.9496L62.1498 35.9425L62.1506 35.9388L62.1532 35.925L62.1542 35.9179L62.1574 35.9006L62.1588 35.8931L62.1618 35.8759L62.1631 35.8683L62.1669 35.8469L62.1672 35.8434L62.17 35.8268L62.1714 35.819L62.1742 35.8022L62.1744 35.801L62.1754 35.7941L62.1782 35.7778L62.1796 35.7695L62.182 35.7551L62.1823 35.7531L62.1837 35.7446L62.1862 35.7287L62.1876 35.7198L62.1895 35.7092L62.194 35.6792L62.1955 35.6704L62.1979 35.6548L62.1993 35.6454L62.2017 35.6301L62.2031 35.6205L62.2037 35.6168L62.2091 35.5809L62.2104 35.571L62.2106 35.5708L62.2127 35.5562L62.2139 35.546L62.2161 35.5316L62.2197 35.507L62.2211 35.4965L62.2231 35.4822L62.2265 35.4577L62.2277 35.4466L62.2297 35.4329L62.2331 35.4084L62.2345 35.397L62.2358 35.3861L62.2363 35.3836L62.2409 35.3471L62.2419 35.34L62.2427 35.3343L62.2441 35.3221L62.2455 35.3094L62.2469 35.2974L62.2475 35.2937L62.2487 35.2846L62.2501 35.2724C65.0116 33.9115 66.795 32.3692 67.2759 30.7573C67.299 30.6873 67.3159 30.6154 67.3264 30.5426C67.6506 27.4541 67.365 22.5744 67.3768 19.2902C65.0813 21.0325 62.4998 22.3748 59.7441 23.2588C58.8732 23.5626 57.9582 23.8499 56.9993 24.1205L56.8394 24.0175L56.8316 24.0126L56.8298 24.0116L56.7469 23.9597L56.7449 23.9587L56.6616 23.9077L56.6597 23.9063L56.5762 23.856L56.574 23.8549L56.4899 23.8054L56.4877 23.804L56.4037 23.7554L56.4013 23.754L56.3166 23.7059L56.3142 23.7045L56.2291 23.6572L56.2265 23.6558L56.1413 23.6093L56.1385 23.6077L56.0528 23.562L56.05 23.5604L55.9639 23.5153L55.9612 23.5137L55.8747 23.4694L55.8717 23.4678L55.785 23.4243L55.7818 23.4227L55.6948 23.3799L55.6915 23.3781L55.6043 23.3363L55.6009 23.3346L55.5135 23.2933L55.5097 23.2916L55.422 23.251L55.4182 23.2492L55.3299 23.2096L55.3263 23.2078L55.2378 23.169L55.2339 23.167L55.1452 23.129L55.141 23.1272L55.0522 23.0897L55.0479 23.088L54.9587 23.0513L54.9543 23.0496L54.8648 23.0137L54.8604 23.0119L54.7705 22.9768L54.7659 22.9749L54.6757 22.9405L54.6711 22.9386L54.5808 22.9051L54.5758 22.9033L54.4853 22.8708L54.4803 22.8688L54.3895 22.8367L54.3842 22.8349L54.2934 22.8038L54.288 22.8018L54.1967 22.7716L54.1143 22.7449L54.0998 22.7401L54.0943 22.7383L54.0026 22.7093L53.9968 22.7076L53.905 22.6796L53.8991 22.6778L53.8069 22.6507L53.7086 22.6222L53.7026 22.6205L53.6099 22.5948L53.6036 22.5931L53.5109 22.5683L53.5044 22.5665L53.4114 22.5424L53.4048 22.5409L53.3115 22.5176L53.3049 22.5158L53.2116 22.4934L53.2049 22.4916L53.1112 22.4699L53.1042 22.4685L53.0105 22.4476L53.0033 22.446L52.9095 22.4259L52.9023 22.4243L52.7063 22.3853L52.6987 22.3838L52.6044 22.3662L52.5968 22.3647L52.5021 22.3479L52.4944 22.3465L52.3995 22.3305L52.3915 22.3291L52.2968 22.3142L52.2884 22.3128L52.1934 22.2986L52.1851 22.2972L52.0901 22.2837L52.0817 22.2825L51.9864 22.2698L51.9778 22.2687L51.8824 22.2568L51.8736 22.2559L51.7781 22.2446L51.7693 22.2434L51.6734 22.2334L51.6644 22.2326L51.5685 22.2231L51.5595 22.2221L51.4635 22.2137L51.4542 22.2129L51.3582 22.2052L51.3486 22.2042L51.2525 22.1975L51.2429 22.1967L51.1465 22.1906L51.137 22.19L51.0406 22.1849L51.0305 22.1843L50.9341 22.1799L50.9241 22.1796L50.8276 22.176L50.8172 22.1756C53.4735 21.7019 56.0889 21.0281 58.6404 20.1601C63.8788 18.3329 67.1805 16.0199 67.3818 13.6274C67.3848 13.5902 67.3876 13.5525 67.389 13.5151C67.389 13.4768 67.3916 13.438 67.3916 13.3994C67.3916 9.99673 61.2478 7.54389 58.6404 6.63429C52.714 4.56672 44.4872 3.28839 35.3652 3.28839C26.2463 3.28839 18.0188 4.56714 12.0911 6.63505C6.68679 8.52024 3.34226 10.9225 3.33908 13.3956C3.33908 13.4345 3.33989 13.4731 3.34149 13.5115C3.34149 13.5486 3.34572 13.5904 3.3489 13.6274C3.55005 16.0196 6.85291 18.3321 12.0913 20.1596C13.8692 20.771 15.6815 21.2807 17.5191 21.6861L17.5149 21.687L17.4394 21.7059L17.4352 21.7071L17.36 21.7262L17.3559 21.7274L17.2807 21.7472L17.2767 21.7484L17.2017 21.7687L17.1976 21.7698L17.123 21.7905L17.119 21.7917L17.0441 21.8129L17.0403 21.814L16.9657 21.8358L16.9619 21.8368L16.8876 21.8589L16.8838 21.8601L16.8094 21.8828L16.8058 21.8839L16.7315 21.907L16.7279 21.9082L16.6541 21.9318L16.6504 21.9328L16.5766 21.9571L16.573 21.9581L16.4996 21.9827L16.496 21.9836L16.4225 22.0087L16.4193 22.0101L16.3459 22.0355L16.3425 22.0365L16.2694 22.0625L16.266 22.0635L16.1931 22.0901L16.1898 22.0911L16.1171 22.1179L16.1139 22.1192L16.0413 22.1465L16.038 22.1477L15.9656 22.1752L15.9624 22.1764L15.8903 22.2046L15.8871 22.2058L15.8151 22.2346L15.8123 22.2356L15.7402 22.2647L15.7375 22.2659L15.6658 22.2955L15.6626 22.2968L15.5913 22.3266L15.5884 22.328L15.5171 22.3583L15.5141 22.3595L15.443 22.3905L15.4404 22.3914L15.3694 22.4228L15.3668 22.424L15.2959 22.4557L15.2934 22.4571L15.2229 22.4892L15.2203 22.4904L15.1498 22.5229L15.1472 22.5241L15.0774 22.5572L15.0748 22.5586L15.0047 22.5921L15.0023 22.5931L14.9326 22.6272L14.9302 22.6281L14.8608 22.6627L14.8582 22.6639L14.7892 22.6985L14.7866 22.6999L14.7175 22.7352L14.7151 22.7364L14.6467 22.7721L14.6441 22.7732L14.5756 22.8093L14.5734 22.8105L14.505 22.8469L14.5028 22.8481L14.4347 22.8852L14.4326 22.8864L14.3645 22.9236L14.3623 22.9246L14.2948 22.9626L14.2926 22.9636L14.2252 23.0021L14.2232 23.003L14.1559 23.0417L14.154 23.0429L14.0185 23.1227L14.0164 23.1237L13.9498 23.1637L13.9478 23.1646L13.8818 23.205L13.8797 23.2061L13.8139 23.2468L13.8121 23.248L13.679 23.3318L13.6772 23.3328L13.612 23.3748L13.6102 23.3757L13.4789 23.4621L13.4773 23.4631L13.4126 23.5062L13.4112 23.5074L13.3468 23.5509L13.3452 23.5518L13.2814 23.5959L13.2797 23.5971L13.2161 23.6414L13.2145 23.6424L13.151 23.6874L13.1498 23.6881L13.0866 23.7333L13.085 23.7343L13.0222 23.78L13.021 23.7809L12.9581 23.8269L12.9567 23.8279L12.8944 23.8744H12.8943L12.8931 23.8752C12.2364 23.6779 11.6012 23.4723 10.9876 23.2583C8.22529 22.3726 5.63813 21.0259 3.33908 19.2772V30.0051C3.56706 32.3958 5.88748 33.9067 7.85804 34.9518L7.85903 34.9663L7.86023 34.9792L7.86121 34.9906L7.86241 35.005L7.86461 35.0292L7.86482 35.0338L7.8658 35.0436L7.86799 35.068L7.86919 35.0822L7.86983 35.0883L7.87159 35.1068L7.87279 35.1207L7.87505 35.1429L7.87541 35.1457L7.87661 35.1593L7.879 35.1845L7.88042 35.1975V35.1979L7.88303 35.2234L7.88444 35.2366L7.88621 35.2522L7.88706 35.2622L7.89143 35.301L7.892 35.3063L7.89263 35.3134L7.89581 35.3394L7.89722 35.3521L7.89821 35.3609L7.90026 35.3783L7.90167 35.3903L7.90442 35.4153L7.90463 35.4169L7.90605 35.4289L7.90944 35.4557L7.91085 35.4674L7.91127 35.4697L7.91424 35.4943L7.91565 35.506L7.91805 35.5241L7.91925 35.533L7.92045 35.5442L7.92426 35.5716L7.92525 35.5785L7.92567 35.5826L7.92949 35.6102L7.93069 35.6213L7.93246 35.6329L7.93485 35.6489L7.93605 35.6595L7.94008 35.6871V35.6875L7.94163 35.6979L7.94566 35.7259L7.94707 35.7364L7.94785 35.7415L7.9513 35.7646L7.95286 35.7744L7.95589 35.7957L7.9571 35.8032L7.95865 35.8129L7.9631 35.8418L7.9643 35.8499V35.8511L7.9691 35.8803L7.9703 35.8895L7.97291 35.9039L7.9751 35.9187L7.97672 35.9278L7.98152 35.9573V35.9581L7.98286 35.966L7.98766 35.9956L7.98908 36.0043L7.9907 36.0123L7.99409 36.0342L7.99572 36.0423L7.99974 36.0663L8.00094 36.0726L8.00228 36.0805L8.00751 36.1109L8.00892 36.1187L8.00913 36.1195L8.00934 36.1203L8.01449 36.1493L8.0157 36.157L8.01908 36.1743L8.02149 36.1878L8.0229 36.1949L8.02876 36.226L8.0289 36.2282L8.02975 36.2331L8.03575 36.2644L8.03716 36.2713L8.03914 36.2821L8.04316 36.3026L8.0445 36.3094L8.04951 36.3359L8.05058 36.3409L8.05192 36.3472L8.05834 36.3791L8.05933 36.3854L8.06032 36.3897L8.06596 36.4174L8.06696 36.4233L8.07112 36.4436L8.07373 36.4556L8.07479 36.4613L8.08178 36.4936L8.08235 36.4972L8.08277 36.4991L8.08976 36.5319L8.09075 36.5372L8.09379 36.551L8.09795 36.5701L8.09894 36.575L8.10557 36.6046L8.10621 36.6081L8.10741 36.6131L8.11461 36.6464L8.1156 36.6509L8.11736 36.6582L8.12302 36.6844L8.12422 36.6887L8.12937 36.7116L8.13177 36.7225L8.13261 36.7266L8.1406 36.7605L8.14158 36.7642L8.14179 36.765L8.14963 36.7985L8.1502 36.8021L8.15422 36.8186L8.15839 36.8363L8.15945 36.8399L8.16721 36.8719L8.16764 36.8742L8.16841 36.8776L8.17703 36.9123L8.17766 36.9152L8.18007 36.9251L8.18621 36.9501L8.18705 36.9531L8.19341 36.9785L8.19581 36.9881L8.19623 36.9905L8.20548 37.0258L8.20584 37.0282L8.20682 37.0317L8.21508 37.0636L8.21565 37.0656L8.22066 37.0849L8.22504 37.1015L8.22546 37.1033L8.23464 37.1379L8.23485 37.1391L8.23527 37.1409L8.24509 37.1768L8.2453 37.1784L8.2489 37.1912L8.25526 37.2146L8.25547 37.2158L8.26331 37.2441L8.26549 37.2523L8.26571 37.253L8.27608 37.2899L8.2763 37.2907L8.27813 37.297L8.28653 37.3274L8.28667 37.3279L8.29289 37.3498L8.29712 37.3652L8.29734 37.3654L8.30814 37.4026L8.51324 38.1108L7.86284 38.6147C6.24462 37.8957 4.72475 36.9789 3.33908 35.886V46.6758C3.55266 48.6118 5.28226 50.1377 7.31862 51.2969C7.34948 49.861 7.39826 47.9973 7.4229 47.4018C7.5872 43.5705 10.3658 40.6898 13.9452 39.6683C12.6234 38.0549 11.8989 36.0463 11.8911 33.9733C11.8832 31.9003 12.5925 29.8865 13.9021 28.2635C15.2116 26.6405 17.0434 25.5051 19.0957 25.0442C21.1481 24.5834 23.2986 24.8246 25.1931 25.7281C25.9858 23.5894 27.4921 21.7791 29.4656 20.5932C31.4391 19.4074 33.7628 18.9163 36.0565 19.2003C38.3503 19.4844 40.4782 20.5267 42.0922 22.1568C43.7061 23.7868 44.7104 25.9081 44.9408 28.1734C46.4369 26.6549 48.4698 25.7629 50.6168 25.6828C52.7637 25.6026 54.8593 26.3407 56.4678 27.7433C58.0763 29.146 59.0739 31.1053 59.253 33.2137C59.4321 35.3222 58.7789 37.4174 57.4294 39.0638ZM60.6744 52.5948C59.6733 53.012 58.5768 53.4081 57.3949 53.7793C54.9472 54.5328 52.4504 55.1217 49.9216 55.5419V44.4068C49.9297 42.888 49.5384 41.3931 48.7858 40.0674C48.7679 39.7716 48.6884 39.4827 48.5523 39.2185C48.4162 38.9543 48.2264 38.7205 47.9947 38.5316C46.9682 37.9002 46.1797 36.9554 45.7494 35.8414C45.3191 34.7275 45.2706 33.5055 45.6113 32.3619C45.9521 31.2182 46.6634 30.2158 47.6367 29.5074C48.61 28.799 49.7918 28.4237 51.002 28.4385C52.2121 28.4534 53.3841 28.8577 54.3391 29.5898C55.2942 30.3219 55.9798 31.3415 56.2915 32.4931C56.6031 33.6448 56.5237 34.8652 56.0652 35.9683C55.6068 37.0713 54.7946 37.9964 53.7525 38.6024C53.1486 38.9544 52.5678 41.1607 53.8591 41.3079L55.5825 41.5046C58.2756 41.8118 60.4422 43.6903 60.5117 46.3596L60.6744 52.5948ZM46.4944 56.0458C45.4401 56.1768 44.3612 56.2893 43.2578 56.3833C43.1493 52.7958 42.9458 49.235 42.6472 45.4398V56.433C40.3076 56.6155 37.8705 56.7117 35.3652 56.7117C32.5946 56.7117 29.9068 56.5936 27.3414 56.3715V45.4398C27.0447 49.2116 26.8417 52.7518 26.7328 56.3167C25.4813 56.1992 24.2618 56.0576 23.0741 55.8918V44.4068C23.0688 43.4476 23.3198 42.5039 23.802 41.6705L23.8214 41.6376L23.8676 41.5603L23.8836 41.5341L23.9521 41.4267L23.9603 41.4145L24.0205 41.324L24.043 41.2917L24.0517 41.2787L24.1084 41.1989L24.1126 41.1931L24.1922 41.0861L24.1995 41.0772L24.279 40.9756L24.2817 40.9718L24.2867 40.9657L24.3606 40.876L24.385 40.8471L24.4613 40.7588L24.4618 40.758L24.5549 40.6553L24.5569 40.6531L24.6438 40.5617L24.6586 40.5463L24.7483 40.4558L24.7511 40.4533L24.8445 40.3632L24.8607 40.3478L24.9562 40.2605L24.965 40.2526C25.029 40.1952 25.0943 40.1395 25.1609 40.0843L25.1775 40.0705C25.2466 40.014 25.3176 39.9586 25.3895 39.9045L25.4009 39.896L25.5099 39.8161V39.8159C25.5836 39.7628 25.6591 39.7114 25.7353 39.6613L25.7465 39.6539L25.7597 39.6454C25.8728 39.5717 25.9883 39.5011 26.1062 39.4335L26.1162 39.4278L26.1292 39.4209L26.2333 39.3628L26.2507 39.3533L26.3724 39.2888L26.3758 39.2869L26.4901 39.2295L26.5194 39.2149C26.6385 39.1566 26.7598 39.1013 26.8831 39.0492L26.9251 39.0314L26.9383 39.0259L27.0348 38.9867L27.0423 38.9837L27.058 38.9776L27.1691 38.9349L27.1984 38.9238L27.298 38.8876L27.3212 38.8791L27.3288 38.8765L27.4575 38.8324L27.4745 38.8267L27.5816 38.7923L27.6146 38.7819C27.7013 38.7553 27.789 38.7299 27.8768 38.7058L27.9104 38.6968L28.0215 38.668L28.0385 38.6636L28.0425 38.6624L28.0593 38.6585C28.152 38.6355 28.2454 38.614 28.3395 38.5943L28.3518 38.5917L28.457 38.5706L28.4896 38.5643L28.518 38.5592L28.6111 38.5424L28.641 38.5369L28.6695 38.532L28.7764 38.515L28.7928 38.5122L28.8314 38.5068L28.9205 38.4943L28.9655 38.4883L29.0999 38.4715L31.1187 38.2411C32.816 38.0473 32.1683 35.4392 31.1929 34.8373C30.9183 34.668 30.6564 34.4798 30.409 34.2739L30.3447 34.2198L30.3405 34.216L30.2728 34.1573L30.2656 34.1511L30.2444 34.132L30.1898 34.0831L30.1876 34.0812L30.1397 34.0372L30.1107 34.0104L30.0745 33.9759L30.0351 33.9383L30.0099 33.9138L29.9603 33.8649L29.9462 33.851L29.8868 33.7905L29.8834 33.7871L29.8215 33.7225L29.8147 33.715L29.7605 33.657L29.7603 33.6568L29.7184 33.6109L29.7002 33.5908L29.6736 33.5607L29.6666 33.5525L29.6136 33.4918L29.605 33.482L29.5828 33.456L29.5373 33.4022L29.5251 33.3876L29.4711 33.3214L29.4685 33.318L29.4129 33.2481L29.4062 33.2396L29.358 33.1773L29.3426 33.1566L29.3044 33.1055L29.2802 33.0726L29.2742 33.0644L29.2258 32.9971L29.2141 32.9808L29.1657 32.9114L29.1593 32.9021L29.1487 32.8866L29.1009 32.8154L29.0988 32.8122L29.0498 32.7372L29.0436 32.7276L29.002 32.6615L28.988 32.6388L28.976 32.6189L28.9407 32.561L28.9335 32.5491L28.9091 32.5078L28.8807 32.4589L28.8641 32.4299L28.829 32.3675L28.8203 32.3517L28.7786 32.2752L28.7774 32.2726L28.7354 32.193L28.73 32.1819L28.6947 32.1126L28.6827 32.0882L28.6551 32.0316L28.6369 31.9935L28.6165 31.95L28.5925 31.898L28.5893 31.8905L28.5583 31.8211L28.5497 31.8014L28.5427 31.7854L28.5082 31.7044L28.5072 31.7023L28.4732 31.6183L28.4488 31.556L28.44 31.5337L28.43 31.5077L28.4082 31.449L28.3933 31.4081L28.3882 31.3938L28.3602 31.3134L28.3571 31.3047L28.3245 31.2071L28.3191 31.191L28.2925 31.1056L28.2919 31.1039L28.2659 31.0163L28.2621 31.0033L28.2408 30.9282L28.2333 30.9004L28.217 30.8397L28.2125 30.8208L28.1982 30.7656L28.1946 30.7507L28.1806 30.6925L28.1778 30.6807L28.1598 30.6014L28.1566 30.5877L28.1532 30.5713L28.1344 30.4822L28.1342 30.481L28.1166 30.3903L28.114 30.376L28.1001 30.2989L28.0988 30.2911L28.0895 30.2349L28.0849 30.2073L28.0782 30.1621L28.0711 30.1152L28.0627 30.0545L28.0614 30.0433C28.0523 29.9749 28.0443 29.9062 28.0373 29.8371L28.0371 29.8365L28.0285 29.7429L28.0271 29.7277L28.0211 29.6489L28.0207 29.6408L28.0161 29.5702L28.0145 29.5423L28.0115 29.4873L28.0079 29.397V29.3964L28.0057 29.3079L28.0051 29.2854L28.0049 29.2695L28.0043 29.1737C28.0043 29.1201 28.0051 29.0675 28.0063 29.0146L28.0065 29.0013L28.0067 28.9949C28.0079 28.9421 28.0101 28.8893 28.0127 28.837L28.0131 28.8301L28.0137 28.8173L28.0227 28.6802L28.0241 28.6606V28.6597L28.0255 28.6412L28.0307 28.5828L28.0325 28.5633L28.0343 28.5438L28.0361 28.5245L28.0381 28.5049L28.0421 28.4661L28.0443 28.4468L28.0509 28.3888L28.0531 28.3696L28.0557 28.3502L28.0605 28.3118L28.0629 28.2925L28.0657 28.2732L28.0683 28.2542L28.0739 28.2158L28.0768 28.1967L28.0796 28.1774L28.0856 28.1394L28.0885 28.1202L28.0917 28.1011L28.0948 28.0824L28.0979 28.0633L28.1013 28.0442L28.1046 28.0253L28.1147 27.9682L28.1183 27.9495L28.1219 27.9306C28.3331 26.8338 28.82 25.8066 29.5383 24.943C30.2566 24.0794 31.1834 23.407 32.2337 22.9871C33.2841 22.5673 34.4246 22.4135 35.5508 22.5399C36.6771 22.6662 37.7533 23.0686 38.6809 23.7103C39.6085 24.3519 40.3579 25.2124 40.8606 26.213C41.3633 27.2135 41.6033 28.3222 41.5586 29.4377C41.5138 30.5532 41.1858 31.6398 40.6045 32.5982C40.0232 33.5566 39.2072 34.3561 38.2311 34.9238C37.4932 35.3544 36.7832 38.051 38.3616 38.2309L40.4687 38.4715C41.5111 38.5861 42.5192 38.9076 43.4319 39.4166L43.4772 39.4426L43.5548 39.4877L43.604 39.5175L43.606 39.5186L43.6496 39.5451L43.6931 39.5718L43.7007 39.5764L43.7363 39.5991L43.8033 39.6421L43.822 39.6541V39.6542L43.8644 39.6822L43.9066 39.7106L43.9414 39.734L43.9485 39.7392L43.9901 39.768L44.0315 39.7971L44.0349 39.7997L44.0728 39.8265L44.1134 39.8565L44.1543 39.8862L44.1738 39.9006L44.1944 39.9164L44.2345 39.9472L44.2743 39.9779L44.2869 39.9876L44.3137 40.009L44.3529 40.0403L44.3608 40.0467L44.4262 40.1001L44.4306 40.1038L44.469 40.1361L44.5061 40.1675L44.5073 40.1687L44.5449 40.2012L44.5825 40.2343L44.5895 40.2406L44.6197 40.2676L44.6566 40.3011L44.6934 40.335L44.694 40.3356L44.7296 40.3689L44.7656 40.4034L44.8013 40.4379L44.8367 40.4728L44.8719 40.5079L44.9065 40.5432L44.9432 40.5812L45.0056 40.6472L45.0092 40.6509L45.013 40.6549L45.0427 40.6872L45.0758 40.7239L45.0871 40.7369L45.1259 40.7805L45.1413 40.798L45.1735 40.8354L45.1981 40.8644L45.2053 40.8731L45.213 40.8821L45.2714 40.9531L45.2968 40.985L45.3598 41.0653L45.3727 41.0818L45.3897 41.1043L45.4455 41.1794L45.4724 41.2166L45.4772 41.2233L45.5055 41.2633L45.534 41.3037L45.5364 41.3073L45.5404 41.3134L45.6091 41.4153L45.6138 41.4228L45.616 41.4264L45.6854 41.5357L45.6885 41.5402L45.6949 41.5507C46.2236 42.4119 46.5003 43.4004 46.4944 44.4068V56.0458ZM19.647 55.3312C17.3245 54.9033 15.0332 54.3251 12.788 53.6003C12.1417 53.3878 11.3597 53.1198 10.5255 52.7942V47.7626C10.5255 44.7996 13.0064 42.7173 15.994 42.3764L17.8261 42.1672C19.3665 41.9914 18.779 39.6243 17.8933 39.0779C17.2008 38.652 16.6013 38.0946 16.1297 37.4382C15.6581 36.7818 15.3239 36.0395 15.1465 35.2546C14.9692 34.4697 14.9522 33.6579 15.0966 32.8665C15.241 32.0751 15.5439 31.3199 15.9877 30.645C16.4314 29.97 17.0071 29.3888 17.6812 28.9351C18.3554 28.4814 19.1144 28.1644 19.9142 28.0026C20.714 27.8407 21.5385 27.8372 22.3397 27.9923C23.1408 28.1474 23.9026 28.4579 24.5807 28.9059C24.5783 28.9949 24.5771 29.0842 24.5771 29.1737C24.5763 31.4717 25.3759 33.7004 26.8423 35.4879C22.7749 36.6485 19.647 39.9871 19.647 44.4068V55.3312ZM70.7307 13.3956V13.4086C70.7307 13.452 70.7297 13.4953 70.7285 13.5387V13.5432L70.7283 13.5474V13.5517L70.7279 13.5561V13.5604L70.7277 13.5647L70.7255 13.6253L70.7253 13.6296L70.7252 13.6339L70.7249 13.6381L70.7247 13.6424L70.7245 13.6469V13.6513L70.7243 13.6554L70.724 13.6598L70.7237 13.6643L70.7235 13.6684L70.7233 13.6728V13.6742L70.6645 30.0051H70.7243C70.7322 30.0973 70.7319 30.19 70.7233 30.2822L70.6639 46.8043C70.6676 47.0318 70.6594 47.2594 70.6393 47.486C70.6094 47.7592 70.5533 48.0289 70.4718 48.2916C69.4202 51.816 64.96 54.8398 58.3992 56.9007C52.2664 58.8271 44.1891 60 35.3652 60C26.2511 60 17.9328 58.7492 11.7315 56.7091C5.07129 54.5174 0.711267 51.2971 0.0876196 47.5524L0 46.7302V13.3994C0 8.2043 6.80787 4.99545 10.9826 3.53905C17.2513 1.3521 25.8752 0 35.3652 0C44.8583 0 53.4814 1.35189 59.749 3.5385C66.5325 5.90484 70.7279 9.37707 70.7307 13.3956Z" fill="white"/>
</g>
<defs>
<clipPath id="clip0_4092_5741">
<rect width="240" height="60" fill="white"/>
</clipPath>
</defs>
</svg>
